# xmcd CD database file
#
# Track frame offsets:
#	150
#	33821
#	57348
#	78691
#	104551
#	125653
#	159585
#	179524
#	215680
#	239606
#
# Disc length: 3578 seconds
#
# Revision: 0
# Processed by: cddbd v1.5.2PL0 Copyright (c) Steve Scherf et al.
# Submitted via: CDex 1.70beta1
#
DISCID=920df80a
DTITLE=Florian Poser's Brazilian Experience - Surfing the clouds
DYEAR=2013
DGENRE=Jazz
TTITLE0=Air Populaire
TTITLE1=Blue Baiao
TTITLE2=Listen Amadeus
TTITLE3=Insane in spain
TTITLE4=Chorinho Italienne
TTITLE5=Road to nowhere
TTITLE6=Sebastian's revenge
TTITLE7=I wonder why
TTITLE8=Somersault dance
TTITLE9=Surfing the clouds
EXTD=YEAR: 2013
EXTT0=
EXTT1=
EXTT2=
EXTT3=
EXTT4=
EXTT5=
EXTT6=
EXTT7=
EXTT8=
EXTT9=
PLAYORDER=
